<?xml version="1.0" encoding="iso-8859-1"?>
<!-- Generator: Adobe Illustrator 19.0.0, SVG Export Plug-In . SVG Version: 6.00 Build 0)  -->
<svg version="1.1" id="Capa_1" xmlns="http://www.w3.org/2000/svg" xmlns:xlink="http://www.w3.org/1999/xlink" x="0px" y="0px"
	 viewBox="0 0 503.165 503.165" style="enable-background:new 0 0 503.165 503.165;" xml:space="preserve">
<g>
	<path style="fill:#FFE100;" d="M469.62,419.6H41.93c-13.896,0-25.158-11.282-25.158-25.203V108.768
		c0-13.92,11.263-25.203,25.158-25.203h427.69c13.896,0,25.158,11.282,25.158,25.203v285.629
		C494.779,408.317,483.516,419.6,469.62,419.6"/>
	<path style="fill:#FFA800;" d="M469.62,83.565h-25.158c13.896,0,25.158,11.282,25.158,25.203v285.629
		c0,13.92-11.263,25.203-25.158,25.203h25.158c13.896,0,25.158-11.282,25.158-25.203V108.768
		C494.779,94.848,483.516,83.565,469.62,83.565"/>
	<path style="fill:#FFFFFF;" d="M33.544,83.565h25.158c-13.896,0-25.158,11.282-25.158,25.203v285.629
		c0,13.92,11.263,25.203,25.158,25.203H33.544c-13.896,0-25.158-11.282-25.158-25.203V108.768
		C8.386,94.848,19.649,83.565,33.544,83.565"/>
	<g>
		<path d="M251.598,302.328c-18.072,0-36.144-6.805-50.233-20.431L61.31,148.458c-3.354-3.192-3.489-8.518-0.302-11.87
			c3.203-3.369,8.512-3.495,11.858-0.302l140.106,133.481c21.67,20.96,55.549,20.96,77.177,0.042l140.148-133.523
			c3.346-3.201,8.671-3.066,11.858,0.302c3.195,3.352,3.053,8.678-0.294,11.87L301.747,281.939
			C287.7,295.531,269.654,302.328,251.598,302.328"/>
		<path d="M436.076,377.595c-2.18,0-4.352-0.84-5.996-2.52L320.902,263.419l-19.103,18.473c-28.16,27.244-72.271,27.244-100.432,0
			l-19.104-18.473L73.076,375.075c-3.237,3.318-8.545,3.369-11.858,0.118c-3.304-3.243-3.363-8.56-0.117-11.879l115.007-117.612
			c3.229-3.293,8.503-3.369,11.816-0.16l25.091,24.27c21.619,20.91,55.499,20.91,77.135,0l25.091-24.27
			c3.321-3.218,8.587-3.142,11.816,0.16l115.015,117.612c3.237,3.318,3.187,8.636-0.126,11.879
			C440.311,376.797,438.198,377.595,436.076,377.595"/>
		<path d="M16.772,226.38c0,4.637-3.757,8.401-8.386,8.401S0,231.017,0,226.38c0-4.637,3.757-8.401,8.386-8.401
			S16.772,221.743,16.772,226.38"/>
		<path d="M469.62,428H33.544C15.045,428,0,412.929,0,394.397V259.983c0-4.637,3.757-8.401,8.386-8.401s8.386,3.764,8.386,8.401
			v134.414c0,9.266,7.522,16.802,16.772,16.802H469.62c9.25,0,16.772-7.536,16.772-16.802V108.768
			c0-9.266-7.522-16.802-16.772-16.802H33.544c-9.25,0-16.772,7.536-16.772,16.802v84.009c0,4.637-3.757,8.401-8.386,8.401
			S0,197.414,0,192.776v-84.009c0-18.532,15.045-33.603,33.544-33.603H469.62c18.5,0,33.544,15.071,33.544,33.603v285.629
			C503.165,412.929,488.12,428,469.62,428"/>
	</g>
</g>
<g>
</g>
<g>
</g>
<g>
</g>
<g>
</g>
<g>
</g>
<g>
</g>
<g>
</g>
<g>
</g>
<g>
</g>
<g>
</g>
<g>
</g>
<g>
</g>
<g>
</g>
<g>
</g>
<g>
</g>
</svg>
