<svg xmlns="http://www.w3.org/2000/svg" viewBox="0 0 6000 4000"><filter id="c"><feGaussianBlur stdDeviation="55" /></filter><path fill="#605f53" d="M0 0h6000v3984H0z"/><g filter='url(#c)' fill-opacity='.5'><ellipse fill="#fff" fill-opacity=".5" rx="1" ry="1" transform="matrix(1199.35377 -12.51627 8.36542 801.60435 2806.8 2232.2)"/><ellipse fill="#040c04" fill-opacity=".5" rx="1" ry="1" transform="matrix(-435.75617 -1966.68595 1193.47673 -264.43716 5114.5 2881.7)"/><ellipse fill="#a3aac0" fill-opacity=".5" rx="1" ry="1" transform="matrix(-661.8088 -102.45342 177.14895 -1144.31257 1095.9 2013.7)"/><ellipse fill="#000503" fill-opacity=".5" rx="1" ry="1" transform="rotate(-175.6 537.5 1758.8) scale(1244.6193 573.59902)"/><ellipse fill="#ff8743" fill-opacity=".5" rx="1" ry="1" transform="rotate(-71 4189.9 18) scale(587.2961 734.41254)"/><ellipse fill="#e7f9ff" fill-opacity=".5" rx="1" ry="1" transform="matrix(1017.2475 263.62412 -107.54169 414.97156 2894 2520.3)"/><ellipse fill-opacity=".5" rx="1" ry="1" transform="rotate(178.4 1202.4 385.6) scale(956.93939 181.76102)"/><ellipse fill="#effbec" fill-opacity=".5" rx="1" ry="1" transform="rotate(162.5 1528 1206.6) scale(549.40636 353.76037)"/><ellipse fill="#3d2605" fill-opacity=".5" rx="1" ry="1" transform="rotate(8.7 -2410.2 2536.7) scale(999.13402 390.3544)"/><ellipse fill="#04010e" fill-opacity=".5" rx="1" ry="1" transform="matrix(736.54618 427.73937 -248.21194 427.40876 4832 1858.5)"/><ellipse fill="#777376" fill-opacity=".5" rx="1" ry="1" transform="matrix(-405.54535 81.05435 -240.04349 -1201.02767 1469 1796.2)"/><ellipse fill="#a38487" fill-opacity=".5" rx="1" ry="1" transform="rotate(-121 3022.6 -8.5) scale(330.81277 241.30788)"/><ellipse fill="#c2907c" fill-opacity=".5" rx="1" ry="1" transform="matrix(691.88057 -59.31509 19.35908 225.81391 1369.8 2964.6)"/><ellipse fill="#46712e" fill-opacity=".5" rx="1" ry="1" transform="matrix(50.16384 -270.51638 969.61036 179.80197 2600.4 1264.4)"/><ellipse fill="#310f00" fill-opacity=".5" rx="1" ry="1" transform="matrix(-17.2524 -227.86804 202.74097 -15.34996 1494.8 1397.8)"/><ellipse fill="#3d5925" fill-opacity=".5" rx="1" ry="1" transform="matrix(1133.82302 531.12151 -178.77187 381.63707 4137.3 3608.8)"/><ellipse fill="#a0a9b1" fill-opacity=".5" rx="1" ry="1" transform="rotate(-177.7 286.5 518.7) scale(860.53938 195.03748)"/><ellipse fill="#683029" fill-opacity=".5" rx="1" ry="1" transform="rotate(-93.4 2452.2 -1863.5) scale(361.49688 1968.79373)"/><ellipse fill="#11181a" fill-opacity=".5" rx="1" ry="1" transform="matrix(573.86273 -471.37616 344.4648 419.3583 1527.6 3631.4)"/><ellipse fill="#a3c0dc" fill-opacity=".5" rx="1" ry="1" transform="matrix(190.87535 99.83537 -176.51804 337.48504 610.6 2314)"/><ellipse fill="#253222" fill-opacity=".5" rx="1" ry="1" transform="rotate(-179 1345 1524.5) scale(1639.37707 81.80738)"/><ellipse fill="#dce5f4" fill-opacity=".5" rx="1" ry="1" transform="matrix(38.99405 668.98494 -208.05443 12.12716 3684.4 2390.5)"/><ellipse fill="#070b1b" fill-opacity=".5" rx="1" ry="1" transform="matrix(687.95825 29.58787 -18.21552 423.53566 5221 3236)"/><ellipse fill="#ff7e55" fill-opacity=".5" rx="1" ry="1" transform="rotate(-80.2 3561.8 260.6) scale(290.03588 527.50635)"/><ellipse fill="#366019" fill-opacity=".5" rx="1" ry="1" transform="matrix(-213.12538 -79.76138 460.9324 -1231.62854 69.8 2528.5)"/><ellipse fill="#bac8ec" fill-opacity=".5" rx="1" ry="1" transform="matrix(-898.70857 321.52828 -72.36187 -202.25976 2548.1 2627.1)"/><ellipse fill="#6b7b3c" fill-opacity=".5" rx="1" ry="1" transform="rotate(-152.6 3285 559.3) scale(478.30952 465.14625)"/><ellipse fill="#737e62" fill-opacity=".5" rx="1" ry="1" transform="matrix(-290.3605 271.71454 -433.3618 -463.10051 5754.6 1175.4)"/><ellipse fill="#a2a9b5" fill-opacity=".5" rx="1" ry="1" transform="matrix(-190.28881 -111.1958 417.83402 -715.03722 929 1392.2)"/><ellipse fill="#60753c" fill-opacity=".5" rx="1" ry="1" transform="rotate(-171.5 481.9 1961.5) scale(1869.3934 215.68973)"/><ellipse fill="#72aae3" fill-opacity=".5" rx="1" ry="1" transform="matrix(275.35347 7.69132 -8.57446 306.97053 697.5 2680)"/><ellipse fill="#f7ffff" fill-opacity=".5" rx="1" ry="1" transform="matrix(630.66048 6.6045 -.35406 33.80857 2503 1712.1)"/><ellipse fill="#000001" fill-opacity=".5" rx="1" ry="1" transform="rotate(-31.3 7206.6 -2140.4) scale(256.26398 130.15749)"/><ellipse fill="#516c3a" fill-opacity=".5" rx="1" ry="1" transform="rotate(-19.8 4967.5 -6686.8) scale(485.51604 263.58084)"/><ellipse fill="#ff9a3d" fill-opacity=".5" rx="1" ry="1" transform="rotate(68.8 -1487.7 2318.5) scale(151.53375 353.95327)"/><ellipse fill="#0d2100" fill-opacity=".5" rx="1" ry="1" transform="matrix(-676.58869 -69.6838 18.3396 -178.0668 2455.7 693.7)"/><ellipse fill="#475635" fill-opacity=".5" rx="1" ry="1" transform="matrix(-474.08766 413.57302 -447.58278 -513.07378 4120.4 3581)"/><ellipse fill="#e0d084" fill-opacity=".5" rx="1" ry="1" transform="matrix(-7.27856 -160.2863 586.52076 -26.63375 3239 2150)"/><ellipse fill="#509e79" fill-opacity=".5" rx="1" ry="1" transform="rotate(157.7 982.4 1156.8) scale(371.91012 150.30122)"/><ellipse fill="#100f19" fill-opacity=".5" rx="1" ry="1" transform="rotate(-140.7 2552.7 -164.2) scale(513.6427 325.26235)"/><ellipse fill="#566c3a" fill-opacity=".5" rx="1" ry="1" transform="matrix(1415.49447 51.54166 -7.30722 200.67913 5363.7 3885.5)"/><ellipse fill="#c9c2cc" fill-opacity=".5" rx="1" ry="1" transform="matrix(8.15596 -107.80353 459.86508 34.79146 4183.7 11.7)"/><ellipse fill="#a6bfd9" fill-opacity=".5" rx="1" ry="1" transform="matrix(-16.91701 96.71506 -342.93304 -59.98447 1394.1 2474.9)"/><ellipse fill="#434c2e" fill-opacity=".5" rx="1" ry="1" transform="matrix(-19.5066 -278.95743 459.87843 -32.15783 3160 3307.3)"/><ellipse fill="#4f6973" fill-opacity=".5" rx="1" ry="1" transform="matrix(-691.82287 102.5385 -19.5672 -132.0191 1460.8 2111.5)"/><ellipse fill="#f9ffff" fill-opacity=".5" rx="1" ry="1" transform="matrix(121.95407 -28.8801 23.43519 98.96144 3712 1639)"/><ellipse fill="#4b3137" fill-opacity=".5" rx="1" ry="1" transform="matrix(45.62133 267.51723 -1830.99523 312.25072 1490.2 11.7)"/><ellipse fill="#1c7a00" fill-opacity=".5" rx="1" ry="1" transform="rotate(87.2 387.4 2474.3) scale(297.76884 23.4375)"/><ellipse fill="#d9e5ff" fill-opacity=".5" rx="1" ry="1" transform="rotate(-167.8 1771.7 725.8) scale(503.41927 232.33962)"/><ellipse fill="#64696d" fill-opacity=".5" rx="1" ry="1" transform="matrix(-794.9135 -134.44956 9.5909 -56.70482 4704.5 3226)"/><ellipse fill="#cdd6ee" fill-opacity=".5" rx="1" ry="1" transform="matrix(40.40916 -222.3915 639.6253 116.2217 3071.2 2738.7)"/><ellipse fill="#9e855b" fill-opacity=".5" rx="1" ry="1" transform="matrix(3.57566 -128.79838 677.23224 18.8011 2316 375.9)"/><ellipse fill="#637a91" fill-opacity=".5" rx="1" ry="1" transform="matrix(-213.7513 -273.81615 207.22365 -161.76666 1727.4 2528.8)"/><ellipse fill="#b4cde7" fill-opacity=".5" rx="1" ry="1" transform="matrix(-105.83855 13.36124 -71.00182 -562.4275 1991.3 2138.3)"/><ellipse fill="#091f00" fill-opacity=".5" rx="1" ry="1" transform="matrix(-34.78804 -123.0652 266.6428 -75.37451 1013.7 608.4)"/><ellipse fill-opacity=".5" rx="1" ry="1" transform="matrix(-23.25426 139.8129 -291.11824 -48.41998 4727.8 3471.7)"/><ellipse fill="#ce9588" fill-opacity=".5" rx="1" ry="1" transform="matrix(-59.07842 -152.03181 198.15825 -77.00281 1331.6 841)"/><ellipse fill="#583f1c" fill-opacity=".5" rx="1" ry="1" transform="matrix(135.60607 12.10252 -41.56419 465.71762 1624.9 1378)"/><ellipse fill="#cddefd" fill-opacity=".5" rx="1" ry="1" transform="rotate(-90.5 2614.6 229.2) scale(158.67525 206.75503)"/><ellipse fill="#d3ecff" fill-opacity=".5" rx="1" ry="1" transform="matrix(94.58791 8.77466 -33.09917 356.79822 2719.1 2102.5)"/><ellipse fill="#3b4a25" fill-opacity=".5" rx="1" ry="1" transform="rotate(-3.4 49302.8 1270.8) scale(396.43589 592.94794)"/><ellipse fill="#080913" fill-opacity=".5" rx="1" ry="1" transform="matrix(821.14294 169.46357 -27.86132 135.00323 1369.4 3373.7)"/><ellipse fill="#8c8aa1" fill-opacity=".5" rx="1" ry="1" transform="matrix(-1.88329 99.99953 -717.08648 -13.50485 5915.5 809)"/><ellipse fill="#889aaf" fill-opacity=".5" rx="1" ry="1" transform="matrix(-47.6298 170.59077 -347.80674 -97.10939 1293.3 1942.3)"/><ellipse fill="#798893" fill-opacity=".5" rx="1" ry="1" transform="rotate(84.7 1559.7 2618) scale(131.10518 226.6069)"/><ellipse fill="#a08473" fill-opacity=".5" rx="1" ry="1" transform="matrix(-37.14878 50.38738 -401.09319 -295.7114 4525.6 2429.4)"/><ellipse fill="#567330" fill-opacity=".5" rx="1" ry="1" transform="matrix(179.92136 236.73802 -94.48672 71.8101 4055.2 2106)"/><ellipse fill="#c5bcc0" fill-opacity=".5" rx="1" ry="1" transform="rotate(-179.8 1722.9 3.5) scale(809.27428 58.38684)"/><ellipse fill="#3f2d25" fill-opacity=".5" rx="1" ry="1" transform="matrix(269.35141 431.44042 -130.3333 81.36804 4960.1 534.5)"/><ellipse fill="#d4ddff" fill-opacity=".5" rx="1" ry="1" transform="matrix(61.81916 -2.19132 16.37655 461.9983 2172.5 2190.2)"/><ellipse fill="#0a0d14" fill-opacity=".5" rx="1" ry="1" transform="rotate(-44.1 4492 -4949.7) scale(706.7618 367.11063)"/><ellipse fill="#d1d8e2" fill-opacity=".5" rx="1" ry="1" transform="rotate(-124.4 2431.2 330.9) scale(562.14647 215.11158)"/><ellipse fill="#090809" fill-opacity=".5" rx="1" ry="1" transform="rotate(-82.8 4238 -1573.6) scale(314.05441 249.62513)"/><ellipse fill="#4c6c36" fill-opacity=".5" rx="1" ry="1" transform="matrix(623.66516 -199.03694 96.80968 303.34482 3533 1200)"/><ellipse fill="#000100" fill-opacity=".5" rx="1" ry="1" transform="matrix(1.15714 107.69833 -750.05393 8.05881 5765.6 3521.2)"/><ellipse fill="#606b53" fill-opacity=".5" rx="1" ry="1" transform="rotate(-76.8 3364.2 -2920.3) scale(111.43261 911.04724)"/><ellipse fill="#342f2a" fill-opacity=".5" rx="1" ry="1" transform="rotate(-18.1 10809.2 -11884.9) scale(350.58394 429.46158)"/><ellipse fill="#6e574e" fill-opacity=".5" rx="1" ry="1" transform="matrix(-22.44845 213.5827 -390.56139 -41.04966 1140.9 277.5)"/><ellipse fill="#5a535b" fill-opacity=".5" rx="1" ry="1" transform="matrix(15.02759 -84.36441 651.86913 116.11558 230.4 3337)"/><ellipse fill="#e7c537" fill-opacity=".5" rx="1" ry="1" transform="rotate(-97 2532 -367.1) scale(23.4375 416.31593)"/><ellipse fill="#3c4628" fill-opacity=".5" rx="1" ry="1" transform="rotate(12.7 -12972.5 14076.6) scale(468.33054 207.08644)"/><ellipse fill="#0f2f54" fill-opacity=".5" rx="1" ry="1" transform="rotate(-12.4 12665.7 -3710.1) scale(167.76855 85.24296)"/><ellipse fill="#060000" fill-opacity=".5" rx="1" ry="1" transform="matrix(58.6284 -244.43823 114.15994 27.3812 4009.9 2699.5)"/><ellipse fill="#756617" fill-opacity=".5" rx="1" ry="1" transform="matrix(-617.22056 -104.92391 29.20123 -171.77781 117.4 607.1)"/><ellipse fill="#786b6f" fill-opacity=".5" rx="1" ry="1" transform="matrix(706.77084 64.976 -3.2229 35.05674 1426.6 924.9)"/><ellipse fill="#00000a" fill-opacity=".5" rx="1" ry="1" transform="rotate(163.9 36.9 1599.2) scale(209.66611 154.51268)"/><ellipse fill="#efba00" fill-opacity=".5" rx="1" ry="1" transform="rotate(-143.6 1871.9 535.4) scale(23.4375 282.55141)"/><ellipse fill="#475a5b" fill-opacity=".5" rx="1" ry="1" transform="rotate(-104.7 1610.3 503.1) scale(72.5823 565.94603)"/><ellipse fill="#222d14" fill-opacity=".5" rx="1" ry="1" transform="matrix(-537.48215 35.69953 -4.22406 -63.59628 3433.2 3064.1)"/><ellipse fill="#54662d" fill-opacity=".5" rx="1" ry="1" transform="matrix(-169.32248 241.1478 -275.15737 -193.20238 5913.6 1267.7)"/><ellipse fill="#4b6038" fill-opacity=".5" rx="1" ry="1" transform="matrix(-4.74332 -156.13665 1553.97892 -47.20872 3150.7 1399.1)"/><ellipse fill="#584b56" fill-opacity=".5" rx="1" ry="1" transform="matrix(245.88581 -36.589 20.49988 137.76352 1549.2 3013.8)"/><ellipse fill="#4f925c" fill-opacity=".5" rx="1" ry="1" transform="matrix(233.2918 -39.03966 10.44968 62.4448 2616.3 1773.1)"/><ellipse fill="#e37244" fill-opacity=".5" rx="1" ry="1" transform="rotate(141.8 839.1 2514.9) scale(480.64615 365.39086)"/><ellipse fill="#624232" fill-opacity=".5" rx="1" ry="1" transform="matrix(-13.8661 397.07319 -477.75588 -16.6836 3269.8 435.4)"/><ellipse fill="#ccd7f1" fill-opacity=".5" rx="1" ry="1" transform="matrix(-221.44008 401.95288 -357.51784 -196.96035 2478.9 2517.8)"/><ellipse fill="#70844d" fill-opacity=".5" rx="1" ry="1" transform="matrix(66.69763 -149.43686 67.83134 30.27492 5667 2120)"/><ellipse fill="#f33d02" fill-opacity=".5" rx="1" ry="1" transform="rotate(90.9 1570.6 4392.2) scale(167.90904 59.45566)"/><ellipse fill="#ffab60" fill-opacity=".5" rx="1" ry="1" transform="rotate(93.7 -622.6 2038.5) scale(99.00525 253.51816)"/><ellipse fill="#848596" fill-opacity=".5" rx="1" ry="1" transform="rotate(178 1049.9 491.7) scale(1472.90255 23.4375)"/><ellipse fill="#247430" fill-opacity=".5" rx="1" ry="1" transform="matrix(-18.66968 312.60204 -24.1245 -1.4408 2558.9 1857)"/><ellipse fill="#cbd8f4" fill-opacity=".5" rx="1" ry="1" transform="matrix(-885.65378 68.1671 -8.6273 -112.08937 2740.8 2819.8)"/><ellipse fill="#878b8a" fill-opacity=".5" rx="1" ry="1" transform="matrix(90.11007 83.39601 -162.88875 176.00261 1864.5 422.8)"/><ellipse fill="#d8e3fb" fill-opacity=".5" rx="1" ry="1" transform="rotate(-168.3 1323.6 904.4) scale(31.86738 538.19168)"/><ellipse fill="#d3dff9" fill-opacity=".5" rx="1" ry="1" transform="matrix(2.9504 -99.898 439.3021 12.9744 3436.2 1650.6)"/><ellipse fill="#8fa1b5" fill-opacity=".5" rx="1" ry="1" transform="rotate(-6.2 24358.2 -9927) scale(888.39136 23.4375)"/><ellipse fill="#8f435e" fill-opacity=".5" rx="1" ry="1" transform="rotate(-17.3 4031.9 -14382.4) scale(259.47368 252.42696)"/><ellipse fill="#0c070c" fill-opacity=".5" rx="1" ry="1" transform="matrix(86.55954 -15.88413 80.43042 438.30044 590.5 20.6)"/><ellipse fill="#4b6b34" fill-opacity=".5" rx="1" ry="1" transform="rotate(1.9 -54495 4661.1) scale(423.33511 311.47535)"/><ellipse fill="#605342" fill-opacity=".5" rx="1" ry="1" transform="rotate(117.4 500.5 2586.5) scale(258.67898 181.97534)"/><ellipse fill="#746a52" fill-opacity=".5" rx="1" ry="1" transform="matrix(-74.48752 -362.12925 118.48292 -24.37113 1736 1803.9)"/><ellipse fill="#7f5b4f" fill-opacity=".5" rx="1" ry="1" transform="matrix(-119.4592 -74.93662 97.1789 -154.91646 2889.3 495.2)"/><ellipse fill="#ccd0d6" fill-opacity=".5" rx="1" ry="1" transform="matrix(6.69022 -22.46235 131.51057 39.16929 2602 337)"/><ellipse fill="#247c1f" fill-opacity=".5" rx="1" ry="1" transform="matrix(-45.80747 96.03735 -56.51066 -26.9542 2337 1964.4)"/><ellipse fill="#5f6547" fill-opacity=".5" rx="1" ry="1" transform="matrix(262.78557 20.95042 -16.93071 212.3655 4191.3 3178.6)"/><ellipse fill="#0b1500" fill-opacity=".5" rx="1" ry="1" transform="matrix(23.97039 78.6694 -410.4579 125.06561 1948.6 776.1)"/><ellipse fill="#141117" fill-opacity=".5" rx="1" ry="1" transform="matrix(-155.9903 28.62958 -79.17872 -431.41092 4367.2 1327)"/><ellipse fill="#b0b4ad" fill-opacity=".5" rx="1" ry="1" transform="matrix(-423.42227 7.00649 -1.40907 -85.15398 3184 2573)"/><ellipse fill="#a5a4b7" fill-opacity=".5" rx="1" ry="1" transform="matrix(-96.01145 -61.40189 84.76864 -132.54903 1365.4 1125.9)"/><ellipse fill="#d1dbf1" fill-opacity=".5" rx="1" ry="1" transform="matrix(234.06414 182.87095 -245.2491 313.90454 3540.8 2573.2)"/><ellipse fill="#deebff" fill-opacity=".5" rx="1" ry="1" transform="rotate(98 429.5 1852.4) scale(102.3537 87.29432)"/><ellipse fill="#4c494f" fill-opacity=".5" rx="1" ry="1" transform="matrix(217.25186 149.07601 -120.93028 176.23444 4487 2754.4)"/><ellipse fill="#cec8cf" fill-opacity=".5" rx="1" ry="1" transform="matrix(191.51796 -50.60123 15.81687 59.86444 1949.4 1625.8)"/><ellipse fill="#93681b" fill-opacity=".5" rx="1" ry="1" transform="matrix(149.83206 41.30047 -32.69619 118.61698 2283 251.6)"/><ellipse fill="#fa966e" fill-opacity=".5" rx="1" ry="1" transform="matrix(89.71635 -154.44124 202.02948 117.3608 2594.2 3557.2)"/><ellipse fill="#d3e0fb" fill-opacity=".5" rx="1" ry="1" transform="rotate(-113.6 2792.1 161.3) scale(208.65033 109.28756)"/><ellipse fill="#c9d4ef" fill-opacity=".5" rx="1" ry="1" transform="matrix(-21.31073 63.79232 -373.66117 -124.82683 2086.7 2240.6)"/><ellipse fill="#6c473d" fill-opacity=".5" rx="1" ry="1" transform="matrix(-520.03123 -615.52139 332.89015 -281.24656 5451.6 60.9)"/><ellipse fill="#2a2626" fill-opacity=".5" rx="1" ry="1" transform="matrix(-257.17286 611.79006 -261.66806 -109.99513 5305.8 2079.8)"/><ellipse fill="#000004" fill-opacity=".5" rx="1" ry="1" transform="matrix(133.74122 -89.83894 60.4832 90.04 859.7 3586)"/><ellipse fill="#304246" fill-opacity=".5" rx="1" ry="1" transform="matrix(76.28608 -38.74832 52.54461 103.44764 1697 2708.5)"/><ellipse fill="#0b640c" fill-opacity=".5" rx="1" ry="1" transform="matrix(6.8734 -231.58898 23.42718 .6953 2076.8 1918.4)"/><ellipse fill="#45532b" fill-opacity=".5" rx="1" ry="1" transform="rotate(86.3 895.1 3147.3) scale(580.23642 117.57933)"/><ellipse fill="#4b5f35" fill-opacity=".5" rx="1" ry="1" transform="matrix(63.32628 36.58924 -82.55047 142.87297 5181.4 2456.8)"/><ellipse fill="#b48a84" fill-opacity=".5" rx="1" ry="1" transform="matrix(-242.9338 -244.88321 52.40814 -51.99094 4588.4 2492)"/><ellipse fill="#7b807e" fill-opacity=".5" rx="1" ry="1" transform="matrix(-8.6993 -186.36473 655.2397 -30.58587 502.7 975)"/><ellipse fill="#34323a" fill-opacity=".5" rx="1" ry="1" transform="rotate(-134.9 2962.7 240.1) scale(412.77623 115.25597)"/><ellipse fill="#42683f" fill-opacity=".5" rx="1" ry="1" transform="matrix(-38.00953 14.97409 -284.97377 -723.3642 2071.3 1391.2)"/><ellipse fill="#d45422" fill-opacity=".5" rx="1" ry="1" transform="matrix(177.66508 185.26743 -144.15096 138.2358 2296.1 3970.2)"/><ellipse fill="#7b8d9e" fill-opacity=".5" rx="1" ry="1" transform="rotate(-135 861.7 703.3) scale(237.91683 512.12357)"/><ellipse fill="#687486" fill-opacity=".5" rx="1" ry="1" transform="matrix(-89.41152 -18.51624 41.75692 -201.63653 1920.6 2682.2)"/><ellipse fill="#4c6e34" fill-opacity=".5" rx="1" ry="1" transform="matrix(-458.89397 156.73786 -43.2753 -126.70057 214 1409.3)"/><ellipse fill="#302b27" fill-opacity=".5" rx="1" ry="1" transform="matrix(172.52757 179.91009 -49.12919 47.1132 1373 1406.5)"/><ellipse fill="#98a7b8" fill-opacity=".5" rx="1" ry="1" transform="matrix(19.5919 107.80731 -458.0643 83.2444 1212.2 2454.9)"/><ellipse fill="#b3bfcf" fill-opacity=".5" rx="1" ry="1" transform="rotate(-27.1 2948.2 -1543) scale(451.08909 54.94927)"/><ellipse fill="#07060f" fill-opacity=".5" rx="1" ry="1" transform="matrix(-21.73064 159.6889 -283.70333 -38.60665 5111.4 2828.4)"/><ellipse fill="#727b8b" fill-opacity=".5" rx="1" ry="1" transform="rotate(179.6 1254.1 474.6) scale(984.46373 31.03399)"/><ellipse fill="#292e1c" fill-opacity=".5" rx="1" ry="1" transform="matrix(-99.1466 -39.25448 73.1528 -184.76494 4352.5 2220.1)"/><ellipse fill="#564a46" fill-opacity=".5" rx="1" ry="1" transform="matrix(288.94967 215.37645 -57.96124 77.76096 1780.2 3098)"/><ellipse fill="#9ba9b9" fill-opacity=".5" rx="1" ry="1" transform="matrix(-124.24139 -5.6976 7.87982 -171.8264 464.5 2538.9)"/><ellipse fill="#9dadbe" fill-opacity=".5" rx="1" ry="1" transform="matrix(-240.8394 -43.76794 11.4565 -63.041 1422.2 1923.8)"/><ellipse fill="#546c3f" fill-opacity=".5" rx="1" ry="1" transform="matrix(-.73183 156.34558 -610.18624 -2.85619 3348.4 1407.4)"/><ellipse fill="#101700" fill-opacity=".5" rx="1" ry="1" transform="matrix(861.27928 -49.66105 6.28754 109.0458 2398.2 785)"/><ellipse fill="#493828" fill-opacity=".5" rx="1" ry="1" transform="rotate(-175.9 816.6 205.8) scale(48.61566 838.35624)"/><ellipse fill="#b3c3d2" fill-opacity=".5" rx="1" ry="1" transform="matrix(-66.4502 333.06532 -64.03528 -12.77574 473.8 2304.6)"/><ellipse fill="#edbf00" fill-opacity=".5" rx="1" ry="1" transform="matrix(37.18197 90.92183 -21.69362 8.87148 3717.9 2111)"/><ellipse fill="#897b75" fill-opacity=".5" rx="1" ry="1" transform="matrix(2144.5694 25.76907 -.42831 35.64533 4727 88.6)"/><ellipse fill="#d2e3f5" fill-opacity=".5" rx="1" ry="1" transform="matrix(975.44834 54.54375 -2.58348 46.20243 2912.2 1652.1)"/><ellipse fill="#709bc8" fill-opacity=".5" rx="1" ry="1" transform="matrix(-227.80938 66.74207 -56.80406 -193.88815 650.1 2772.5)"/><ellipse fill="#563e37" fill-opacity=".5" rx="1" ry="1" transform="rotate(-161.5 2489.8 -398.4) scale(334.28712 281.79761)"/><ellipse fill="#5b6f41" fill-opacity=".5" rx="1" ry="1" transform="rotate(175.3 1155.7 714.3) scale(899.84719 229.29274)"/><ellipse fill="#6c6174" fill-opacity=".5" rx="1" ry="1" transform="matrix(-36.99394 48.84643 -444.37328 -336.547 4997.8 909.8)"/><ellipse fill="#060b0b" fill-opacity=".5" rx="1" ry="1" transform="matrix(-26.22758 93.1304 -118.24018 -33.29905 1038.6 714.4)"/><ellipse fill="#d4e0ff" fill-opacity=".5" rx="1" ry="1" transform="matrix(-113.63305 220.9473 -22.66915 -11.65873 3082 2200.8)"/><ellipse fill="#d4def4" fill-opacity=".5" rx="1" ry="1" transform="rotate(90.9 71.2 2347) scale(232.51327 407.20682)"/><ellipse fill="#00152d" fill-opacity=".5" rx="1" ry="1" transform="matrix(181.37242 -50.64009 8.3043 29.74267 1161 2625.5)"/><ellipse fill="#0d1f07" fill-opacity=".5" rx="1" ry="1" transform="rotate(98.6 -50.5 2643.2) scale(52.89391 471.27833)"/><ellipse fill="#4d5a36" fill-opacity=".5" rx="1" ry="1" transform="matrix(-600.77146 -124.73796 63.97787 -308.13458 11.7 3853.6)"/><ellipse fill="#6d7164" fill-opacity=".5" rx="1" ry="1" transform="matrix(-32.08638 29.87884 -702.51126 -754.41494 5855.4 1648.2)"/><ellipse fill="#e0b9af" fill-opacity=".5" rx="1" ry="1" transform="matrix(158.8364 -35.79533 14.6989 65.22416 1306.9 789)"/><ellipse fill="#0f0f04" fill-opacity=".5" rx="1" ry="1" transform="matrix(-49.37276 -116.74412 108.67565 -45.96049 1971.1 3835.2)"/><ellipse fill="#167b27" fill-opacity=".5" rx="1" ry="1" transform="rotate(-.4 298259.7 -439559) scale(23.4375 154.59307)"/><ellipse fill="#445c3f" fill-opacity=".5" rx="1" ry="1" transform="matrix(68.3959 58.3016 -534.2461 626.74508 15 3224)"/><ellipse fill="#e6c52d" fill-opacity=".5" rx="1" ry="1" transform="matrix(144.49578 -195.4106 36.55436 27.03001 3059.3 2065.5)"/><ellipse fill="#5b6062" fill-opacity=".5" rx="1" ry="1" transform="matrix(7.33541 -42.97264 731.71277 124.9031 4529.6 3247)"/><ellipse fill="#1f1120" fill-opacity=".5" rx="1" ry="1" transform="rotate(-171.4 2126.1 1079.9) scale(198.78094 93.21187)"/><ellipse fill="#625541" fill-opacity=".5" rx="1" ry="1" transform="matrix(90.38695 66.15325 -82.41764 112.60943 3173.5 3151.1)"/><ellipse fill="#1d2c04" fill-opacity=".5" rx="1" ry="1" transform="matrix(-45.75096 51.03946 -254.80606 -228.4041 1714.3 698.2)"/><ellipse fill="#476235" fill-opacity=".5" rx="1" ry="1" transform="matrix(-117.89035 -233.45492 456.01014 -230.27656 5866 2490.8)"/><ellipse fill="#ea875d" fill-opacity=".5" rx="1" ry="1" transform="rotate(-6 36308.2 -24852.7) scale(499.43184 112.58639)"/><ellipse fill="#494648" fill-opacity=".5" rx="1" ry="1" transform="matrix(89.49675 -171.83578 328.03006 170.84697 4516.6 2756.2)"/><ellipse fill="#7a7d83" fill-opacity=".5" rx="1" ry="1" transform="matrix(-21.6089 106.33262 -534.93893 -108.71017 5708.7 877.8)"/><ellipse fill="#384f68" fill-opacity=".5" rx="1" ry="1" transform="matrix(399.68437 -59.73323 8.25673 55.24708 1314.4 3129)"/><ellipse fill="#435428" fill-opacity=".5" rx="1" ry="1" transform="matrix(673.80398 -404.81807 79.61119 132.50973 3841 3900.3)"/><ellipse fill="#a3755d" fill-opacity=".5" rx="1" ry="1" transform="matrix(-79.8093 -198.53189 59.23396 -23.8119 1736 2985.2)"/><ellipse fill="#ffbb71" fill-opacity=".5" rx="1" ry="1" transform="matrix(-235.86238 104.91084 -16.27923 -36.59925 1204.7 2757.7)"/><ellipse fill="#d7e1fa" fill-opacity=".5" rx="1" ry="1" transform="matrix(61.75486 -76.9231 297.88335 239.14464 3159.1 1809)"/><ellipse fill="#b4511d" fill-opacity=".5" rx="1" ry="1" transform="matrix(12.73304 30.57325 -95.88644 39.93444 280 3313.4)"/><ellipse fill="#201710" fill-opacity=".5" rx="1" ry="1" transform="rotate(-179.9 1451.2 413) scale(647.63595 53.28293)"/><ellipse fill="#b1978d" fill-opacity=".5" rx="1" ry="1" transform="matrix(-33.84724 189.26882 -71.09156 -12.71341 1192.8 789.3)"/><ellipse fill="#d7aba4" fill-opacity=".5" rx="1" ry="1" transform="matrix(68.27045 92.00123 -51.50743 38.22161 4528.6 2394.3)"/><ellipse fill="#b1bac9" fill-opacity=".5" rx="1" ry="1" transform="matrix(-90.17024 -55.81842 81.70738 -131.99181 2484.1 2604)"/><ellipse fill="#100e13" fill-opacity=".5" rx="1" ry="1" transform="matrix(102.35254 -140.60197 187.03475 136.15373 1652.7 3286.7)"/><ellipse fill="#8fa7c1" fill-opacity=".5" rx="1" ry="1" transform="matrix(-109.21751 -59.53631 38.87615 -71.31709 1436.1 2610.6)"/><ellipse fill="#eabd00" fill-opacity=".5" rx="1" ry="1" transform="matrix(-23.29596 -2.5719 12.65649 -114.64105 3377.5 2121.3)"/><ellipse fill="#222529" fill-opacity=".5" rx="1" ry="1" transform="matrix(-25.63438 125.99702 -1384.33062 -281.64525 5519.2 3221.2)"/><ellipse fill="#463535" fill-opacity=".5" rx="1" ry="1" transform="matrix(-50.08691 88.15351 -379.89425 -215.84767 2419.4 11.7)"/><ellipse fill="#090407" fill-opacity=".5" rx="1" ry="1" transform="matrix(-102.58505 98.86923 -67.86047 -70.41088 5315.5 2573.8)"/><ellipse fill="#0b0c03" fill-opacity=".5" rx="1" ry="1" transform="matrix(.76082 64.48902 -284.56184 3.35717 1547 3854)"/><ellipse fill="#d0daee" fill-opacity=".5" rx="1" ry="1" transform="matrix(3.26051 -155.65512 592.2673 12.40623 3024 2833)"/></g></svg>