<svg id="Capa_1" enable-background="new 0 0 512 512" height="512" viewBox="0 0 512 512" width="512" xmlns="http://www.w3.org/2000/svg"><g><path d="m256 57.357c-81.155 0-147.18 65.772-147.18 146.617s66.025 146.618 147.18 146.618 147.18-65.772 147.18-146.618-66.025-146.617-147.18-146.617zm0 273.235c-70.127 0-127.18-56.8-127.18-126.618 0-69.817 57.053-126.617 127.18-126.617s127.18 56.8 127.18 126.617c0 69.818-57.053 126.618-127.18 126.618z"/><path d="m256 0c-112.912 0-204.772 91.502-204.772 203.974 0 41.04 10.603 82.779 31.513 124.06 16.57 32.713 39.623 65.211 68.517 96.593 49.001 53.219 97.308 84.483 99.341 85.789 1.645 1.057 3.524 1.585 5.402 1.585s3.757-.528 5.402-1.585c2.033-1.305 50.34-32.57 99.341-85.789 28.893-31.381 51.946-63.88 68.517-96.593 20.91-41.28 31.513-83.02 31.513-124.06-.002-112.472-91.862-203.974-204.774-203.974zm90.355 410.725c-38 41.349-76.476 69.565-90.355 79.203-13.882-9.639-52.355-37.854-90.355-79.203-43.073-46.867-94.417-120.781-94.417-206.751 0-101.444 82.888-183.974 184.772-183.974s184.772 82.53 184.772 183.974c0 85.97-51.343 159.883-94.417 206.751z"/><path d="m324.94 175.935-38.185-11.257-22.506-32.839c-1.865-2.721-4.951-4.347-8.249-4.347s-6.384 1.626-8.249 4.347l-22.506 32.839-38.186 11.257c-3.164.933-5.664 3.365-6.684 6.501-1.019 3.137-.426 6.574 1.585 9.189l24.277 31.552-1.095 39.796c-.091 3.297 1.45 6.426 4.118 8.365 2.669 1.938 6.122 2.436 9.229 1.331l37.511-13.338 37.51 13.339c1.091.388 2.224.578 3.35.578 2.084 0 4.146-.651 5.879-1.91 2.668-1.939 4.209-5.068 4.118-8.365l-1.095-39.796 24.277-31.552c2.011-2.614 2.604-6.052 1.585-9.189-1.02-3.136-3.52-5.568-6.684-6.501zm-37.198 37.864c-1.402 1.823-2.134 4.074-2.07 6.373l.791 28.765-27.112-9.641c-1.084-.385-2.217-.578-3.351-.578s-2.267.193-3.351.578l-27.112 9.641.791-28.765c.064-2.299-.668-4.55-2.07-6.373l-17.548-22.806 27.6-8.137c2.207-.65 4.121-2.041 5.422-3.938l16.268-23.736 16.268 23.736c1.301 1.897 3.215 3.288 5.422 3.938l27.6 8.137z"/></g></svg>