<svg id="Layer_1" data-name="Layer 1" class="uvm-logo"
    xmlns="http://www.w3.org/2000/svg" viewBox="0 0 88.77 147.91">
    <defs>
        <style>.cls-1{fill:#fff;}.cls-2{fill:#b2d23e;}</style>
    </defs>
    <path class="cls-1" d="M71.6,31.09a2.08,2.08,0,0,0,1.4,2.1L69.7,39l1.6,1.2L60.3,80l-.7.89-5.9,6.7v3l3.6,1.8V109l-2.8,5.19,2.8,3.7-3.4,21.27-7.4,10H29.7v2l2.8,1.7v6.59l1.8,1.5v6.19l2.8,1.7v8h74v-8l2.73-1.7v-6.2l1.81-1.5v-6.6l2.83-1.7v-1.9H101.6l-7.48-10-3.54-21.4,2.83-3.6L90.58,109V92.4l3.64-1.8v-3l-6-6.7-.7-.8L76.43,40.2,78.05,39l-3.44-5.8A2.31,2.31,0,0,0,76,31.1a2.11,2.11,0,0,0-2-2.2h-.4A2,2,0,0,0,71.6,31.09Z" transform="translate(-29.7 -28.89)"/>
    <polygon class="cls-2" points="44.9 51.01 49.3 51.01 45.6 15.41 51.9 51.01 55.5 51.01 44.9 10.21 44.9 51.01"/>
    <polygon class="cls-2" points="57.2 54.11 32.7 54.11 30 57.01 30 58.91 59.9 58.91 59.9 57.01 57.2 54.11"/>
    <path class="cls-2" d="M71.2,94.1a2.49,2.49,0,0,0-2.8,2.2v12.6h5V96.3A2.45,2.45,0,0,0,71.2,94.1Z" transform="translate(-29.7 -28.89)"/>
    <path class="cls-2" d="M63.9,94.1a2.49,2.49,0,0,0-2.8,2.2v12.6h5V96.3A2.45,2.45,0,0,0,63.9,94.1Z" transform="translate(-29.7 -28.89)"/>
    <path class="cls-2" d="M85.9,94.1a2.49,2.49,0,0,0-2.8,2.2v12.6h5.1l-.1-12.6A2.45,2.45,0,0,0,85.9,94.1Z" transform="translate(-29.7 -28.89)"/>
    <path class="cls-2" d="M78.6,94.1a2.49,2.49,0,0,0-2.8,2.2v12.6h5V96.3A2.45,2.45,0,0,0,78.6,94.1Z" transform="translate(-29.7 -28.89)"/>
    <polygon class="cls-2" points="59.6 81.81 30.2 81.81 28.4 85.21 61.5 85.21 59.6 81.81"/>
    <path class="cls-2" d="M65.7,138.9c-2.8,0-2.8,2.3-2.8,2.3V149h5.5l.1-7.8S68.5,138.9,65.7,138.9Z" transform="translate(-29.7 -28.89)"/>
    <path class="cls-2" d="M83.9,138.9c-2.8,0-2.8,2.3-2.8,2.3V149h5.5l.1-7.8S86.7,138.9,83.9,138.9Z" transform="translate(-29.7 -28.89)"/>
    <path class="cls-2" d="M74.6,132.4c-3.4,0-3.4,2.8-3.4,2.8V149h6.9V135.2S78,132.4,74.6,132.4Z" transform="translate(-29.7 -28.89)"/>
    <polygon class="cls-2" points="44.9 87.81 20.8 120.11 25 120.11 44.9 92.91 64.9 120.11 69.1 120.11 44.9 87.81"/>
    <polygon class="cls-2" points="6.4 123.01 8.2 125.71 81.7 125.71 83.5 123.01 6.4 123.01"/>
    <path class="cls-2" d="M64.1,167.1h9.2v-9.5a22.61,22.61,0,0,0-9.2,2.2Z" transform="translate(-29.7 -28.89)"/>
    <path class="cls-2" d="M76,167.1h9.2v-7.3a22.61,22.61,0,0,0-9.2-2.2Z" transform="translate(-29.7 -28.89)"/>
    <rect class="cls-2" x="34.4" y="140.91" width="9.2" height="7"/>
    <rect class="cls-2" x="46.3" y="140.91" width="9.2" height="7"/>
    <path class="cls-2" d="M54.4,167.1h6.9l-.1-5.8A31.23,31.23,0,0,0,54.4,167.1Z" transform="translate(-29.7 -28.89)"/>
    <path class="cls-2" d="M48.2,176.8H61.3v-7H52.2A32.47,32.47,0,0,0,48.2,176.8Z" transform="translate(-29.7 -28.89)"/>
    <path class="cls-2" d="M88,161.3v5.8h6.8A31.23,31.23,0,0,0,88,161.3Z" transform="translate(-29.7 -28.89)"/>
    <path class="cls-2" d="M88,169.8v7h13.1a32.47,32.47,0,0,0-4-7Z" transform="translate(-29.7 -28.89)"/>
</svg>