<svg xmlns="http://www.w3.org/2000/svg" viewBox="0 0 127.36 28.94" class="UVM-Votes-logo">
    <g id="Layer_2" data-name="Layer 2">
        <g id="Layer_1-2" data-name="Layer 1">
            <path class="cls-1" d="M64.11,0l-9,23.76-1.48-4H49.83l3.62,9h3.21L68,0Z"/>
            <path class="cls-1" d="M72.88,28.94a8.48,8.48,0,0,1-8.77-8.51v-.05a8.8,8.8,0,0,1,17.59-.05v.05A8.56,8.56,0,0,1,72.88,28.94Zm5-8.56a5,5,0,0,0-5-5.2,5,5,0,0,0-5,5.15v.05a5,5,0,0,0,5,5.2,4.94,4.94,0,0,0,5-5.15Z"/>
            <path class="cls-1" d="M91.73,15.46v13.2H88.09V15.46h-5V12.11H96.76v3.35Z"/>
            <path class="cls-1" d="M99.55,28.66V12.11H112v3.23h-8.87V18.7H111v3.24h-7.8v3.48h9v3.24Z"/>
            <path class="cls-1" d="M121.28,28.89a10.55,10.55,0,0,1-7-2.64l2.15-2.58a7.59,7.59,0,0,0,5,2c1.48,0,2.38-.59,2.38-1.56v-.05c0-.92-.56-1.39-3.33-2.1-3.33-.86-5.49-1.78-5.49-5.06v-.05c0-3,2.42-5,5.8-5a9.59,9.59,0,0,1,6.14,2.1L125,16.72a7.75,7.75,0,0,0-4.3-1.64c-1.4,0-2.13.64-2.13,1.45v0c0,1.09.71,1.45,3.57,2.18,3.36.87,5.25,2.08,5.25,5v0C127.36,27.05,124.85,28.89,121.28,28.89Z"/>
            <path class="cls-1" d="M7.16,16.81C2.72,16.81,0,14.33,0,9.46V0H3.64V9.36c0,2.7,1.35,4.09,3.57,4.09s3.57-1.34,3.57-4V0h3.64V9.34C14.42,14.35,11.61,16.81,7.16,16.81Z"/>
            <path class="cls-1" d="M26.63,16.67H23.41L16.72,0h4l4.32,11.66L29.39,0h3.93Z"/>
            <path class="cls-1" d="M48.81,16.55V5.75l-4.66,7.07h-.1l-4.61-7V16.55H35.87V0H39.8l4.35,7L48.5,0h3.92V16.55Z"/>
        </g>
    </g>
</svg>